<svg width="56" height="52" viewBox="0 0 56 52" fill="none" xmlns="http://www.w3.org/2000/svg">
<path d="M48.3 0H7.7C5.65835 0.00167248 3.7008 0.807323 2.25714 2.24007C0.813474 3.67282 0.00168523 5.61557 0 7.64178L0 32.3007C0.00249643 34.3218 0.81062 36.2597 2.24792 37.6915C3.68522 39.1233 5.63494 39.9325 7.67136 39.9425V51.1304L23.8636 39.9425H48.3C50.3414 39.94 52.2984 39.1341 53.7419 37.7015C55.1854 36.2689 55.9975 34.3267 56 32.3007V7.64178C55.9983 5.61557 55.1865 3.67282 53.7429 2.24007C52.2992 0.807323 50.3417 0.00167248 48.3 0V0ZM52.7195 32.3007C52.7179 33.4632 52.2516 34.5775 51.423 35.3992C50.5945 36.2209 49.4713 36.6829 48.3 36.6837H22.8455L10.9518 44.8939V36.6837H7.7C6.52867 36.6829 5.40552 36.2209 4.57696 35.3992C3.74841 34.5775 3.28214 33.4632 3.28045 32.3007V7.64178C3.2813 6.47876 3.7472 5.36362 4.57584 4.54124C5.40448 3.71886 6.52812 3.25649 7.7 3.25565H48.3C49.4719 3.25649 50.5955 3.71886 51.4242 4.54124C52.2528 5.36362 52.7187 6.47876 52.7195 7.64178V32.3007Z" fill="white"/>
<path d="M26.1488 27.8696H22.6332V20.5571H15.7777V27.8696H12.2621V10.8071H15.7777V17.7211H22.6332V10.8071H26.1488V27.8696ZM43.1058 27.8696H39.5902L32.7464 16.643V27.8696H29.2308V10.8071H32.7464L39.6019 22.0571V10.8071H43.1058V27.8696Z" fill="white"/>
</svg>
